<svg width="688" height="687" xmlns="http://www.w3.org/2000/svg" xmlns:xlink="http://www.w3.org/1999/xlink" overflow="hidden"><defs><clipPath id="clip0"><rect x="309" y="12" width="688" height="687"/></clipPath></defs><g clip-path="url(#clip0)" transform="translate(-309 -12)"><path d="M991 491 940 695 365 695 314 491Z" stroke="#000000" stroke-width="8" stroke-miterlimit="8" fill="#0943BE" fill-rule="evenodd"/><path d="M314 492.1 369.544 68.9C473.12-1.63339 831.88-1.63339 935.456 68.9L991 492.1C887.424 562.633 417.576 562.633 314 492.1Z" stroke="#000000" stroke-width="8" stroke-miterlimit="8" fill="#FFB907" fill-rule="evenodd"/><path d="M393.5 120.423C393.5 97.6764 411.921 79.2364 434.644 79.2364 538.999 40.3385 767.88 44.2214 868.356 79.2364 891.079 79.2364 909.5 97.6764 909.5 120.423L909.5 285.165C909.5 307.912 891.079 326.352 868.356 326.352 789.214 333.216 513.786 333.216 434.644 326.352 411.921 326.352 393.5 307.912 393.5 285.165L393.5 120.423Z" stroke="#2F528F" stroke-width="1.33333" stroke-miterlimit="8" fill="#767171" fill-rule="evenodd"/><path d="M585 542 616.626 449 688.374 449 720 542Z" stroke="#000000" stroke-width="8" stroke-miterlimit="8" fill="#FFB907" fill-rule="evenodd"/><path d="M758.896 390.052C781.534 363.796 880.832 327.804 908.735 342.948 953.37 367.618 961.165 427.194 967.015 473.19 944.378 499.446 807.627 514.315 772.938 500.454 738.248 486.593 736.259 416.309 758.896 390.052Z" stroke="#000000" stroke-width="8" stroke-miterlimit="8" fill="#FFFFFF" fill-rule="evenodd"/><path d="M21.9819 34.5559C47.751 11.3656 150.797-11.8108 176.566 6.73311 217.732 36.8373 217.948 96.9206 217.948 143.287 192.179 166.477 54.6455 163.973 21.9819 145.847-10.6818 127.72-3.78731 57.7461 21.9819 34.5559Z" stroke="#000000" stroke-width="8" stroke-miterlimit="8" fill="#FFFFFF" fill-rule="evenodd" transform="matrix(-0.992009 -0.126169 -0.126169 0.992009 576.724 354.135)"/><path d="M804.358 493.481C793.879 475.014 773.774 379.279 849.477 374.334 925.179 369.389 919.875 465.282 912.356 485.14 904.836 504.998 814.838 511.949 804.358 493.481Z" stroke="#000000" stroke-width="1.33333" stroke-miterlimit="8" fill-rule="evenodd"/><path d="M835.222 386.043C844.518 388.683 848.816 402.225 844.822 416.291 840.827 430.356 830.053 439.617 820.757 436.977 811.461 434.337 807.163 420.795 811.158 406.73 815.152 392.665 825.926 383.403 835.222 386.043Z" stroke="#000000" stroke-width="1.33333" stroke-miterlimit="8" fill="#FFFFFF" fill-rule="evenodd"/><path d="M863.707 381.971C868.062 383.208 870.465 388.182 869.073 393.081 867.682 397.98 863.024 400.949 858.668 399.712 854.313 398.475 851.91 393.501 853.301 388.602 854.693 383.703 859.351 380.734 863.707 381.971Z" stroke="#000000" stroke-width="1.33333" stroke-miterlimit="8" fill="#FFFFFF" fill-rule="evenodd"/><path d="M6.86786 115.325C-2.15871 96.1055-14.8315-0.893024 61.0272 0.00619525 136.886 0.905414 124.213 96.1055 115.187 115.325 106.16 134.545 15.8944 134.545 6.86786 115.325Z" stroke="#000000" stroke-width="1.33333" stroke-miterlimit="8" fill-rule="evenodd" transform="matrix(-0.997031 -0.0770053 -0.0770053 0.997031 512.542 374.004)"/><path d="M0 17.4977C-6.74102e-15 7.83398 11.8529 0 26.4741 0 41.0954-4.45538e-15 52.9482 7.83398 52.9482 17.4977 52.9482 27.1614 41.0954 34.9954 26.4741 34.9954 11.8529 34.9954-1.01115e-14 27.1614 0 17.4977Z" stroke="#000000" stroke-width="1.33333" stroke-miterlimit="8" fill="#FFFFFF" fill-rule="evenodd" transform="matrix(0.273194 0.961959 0.961959 -0.273194 449.118 385.8)"/><path d="M0 8.19795C-2.34798e-15 3.67035 4.1285 0 9.22126 0 14.314-2.08742e-15 18.4425 3.67035 18.4425 8.19795 18.4425 12.7256 14.314 16.3959 9.22126 16.3959 4.1285 16.3959-3.52197e-15 12.7256 0 8.19795Z" stroke="#000000" stroke-width="1.33333" stroke-miterlimit="8" fill="#FFFFFF" fill-rule="evenodd" transform="matrix(0.273194 0.961959 0.961959 -0.273194 429.579 379.187)"/><rect x="637.5" y="620.5" width="30" height="29" stroke="#92D050" stroke-width="1.33333" stroke-miterlimit="8" fill="#00B050"/><rect x="680.5" y="620.5" width="30" height="29" stroke="#92D050" stroke-width="1.33333" stroke-miterlimit="8" fill="#00B050"/><rect x="722.5" y="605.5" width="30" height="30" stroke="#92D050" stroke-width="1.33333" stroke-miterlimit="8" fill="#00B050"/><rect x="769.5" y="590.5" width="30" height="29" stroke="#92D050" stroke-width="1.33333" stroke-miterlimit="8" fill="#00B050"/><rect x="513.5" y="589.5" width="29" height="30" stroke="#92D050" stroke-width="1.33333" stroke-miterlimit="8" fill="#00B050"/><rect x="552.5" y="604.5" width="29" height="30" stroke="#92D050" stroke-width="1.33333" stroke-miterlimit="8" fill="#00B050"/><rect x="595.5" y="619.5" width="30" height="30" stroke="#92D050" stroke-width="1.33333" stroke-miterlimit="8" fill="#00B050"/><path d="M729.136 392.979C719.712 367.762 773.365 335.305 848.975 320.484 886.407 313.147 924.117 311.241 953.328 315.21" stroke="#000000" stroke-width="21.6667" stroke-miterlimit="8" fill="none" fill-rule="evenodd"/><path d="M0.291945 51.1012C-4.69529 24.6468 53.7068 1.81286 130.737 0.100093 168.871-0.747837 206.354 3.80371 234.461 12.6954" stroke="#000000" stroke-width="21.6667" stroke-miterlimit="8" fill="none" fill-rule="evenodd" transform="matrix(-0.985358 -0.170499 -0.170499 0.985358 589.484 344.529)"/><path d="M554.5 177.5C554.5 164.798 564.797 154.5 577.5 154.5 590.203 154.5 600.5 164.798 600.5 177.5 600.5 190.203 590.203 200.5 577.5 200.5 564.797 200.5 554.5 190.203 554.5 177.5Z" stroke="#FFD966" stroke-width="1.33333" stroke-miterlimit="8" fill="#FFB907" fill-rule="evenodd"/><path d="M628.5 177.5C628.5 164.798 638.797 154.5 651.5 154.5 664.203 154.5 674.5 164.798 674.5 177.5 674.5 190.203 664.203 200.5 651.5 200.5 638.797 200.5 628.5 190.203 628.5 177.5Z" stroke="#FFD966" stroke-width="1.33333" stroke-miterlimit="8" fill="#FFB907" fill-rule="evenodd"/><path d="M703.5 177.5C703.5 164.798 713.574 154.5 726 154.5 738.426 154.5 748.5 164.798 748.5 177.5 748.5 190.203 738.426 200.5 726 200.5 713.574 200.5 703.5 190.203 703.5 177.5Z" stroke="#FFD966" stroke-width="1.33333" stroke-miterlimit="8" fill="#FFB907" fill-rule="evenodd"/></g></svg>